<svg width="33" height="27" viewBox="0 0 33 27" fill="none" xmlns="http://www.w3.org/2000/svg">
<ellipse cx="16.9632" cy="15.5" rx="14" ry="11.5" fill="#1D1A05"/>
<path d="M12.9632 13.6667C12.9632 14.7712 11.1026 15 9.62983 15C8.15707 15 6.96317 14.1046 6.96317 13C6.96317 11.8954 8.15707 11 9.62983 11C11.1026 11 12.9632 12.5621 12.9632 13.6667Z" fill="white"/>
<path d="M19.9632 13.6667C19.9632 14.7712 21.8237 15 23.2965 15C24.7693 15 25.9632 14.1046 25.9632 13C25.9632 11.8954 24.7693 11 23.2965 11C21.8237 11 19.9632 12.5621 19.9632 13.6667Z" fill="white"/>
<path d="M17.7741 20.8764C17.3749 21.4295 16.5514 21.4295 16.1523 20.8764L13.7771 17.5852C13.2998 16.9238 13.7723 16 14.5879 16H19.3384C20.154 16 20.6266 16.9238 20.1493 17.5852L17.7741 20.8764Z" fill="#E6AAD3"/>
<path d="M0.639096 1.93591C0.416504 1.11366 1.2582 0.40739 2.0293 0.769382L11.4281 5.1816C12.0892 5.49198 12.2054 6.38339 11.6459 6.85287L4.96025 12.4628C4.40075 12.9323 3.54306 12.663 3.35221 11.958L0.639096 1.93591Z" fill="#1D1A05"/>
<path d="M31.261 0.318123C32.0321 -0.0438686 32.8738 0.662398 32.6512 1.48464L29.9381 11.5068C29.7472 12.2118 28.8895 12.481 28.33 12.0115L21.6444 6.40161C21.0849 5.93213 21.2011 5.04072 21.8622 4.73035L31.261 0.318123Z" fill="#1D1A05"/>
</svg>

