<svg width="43" height="31" viewBox="0 0 26 23" fill="none" xmlns="http://www.w3.org/2000/svg">
<path d="M11.053 3.78396C11.5099 5.03912 11.5633 6.29513 11.2924 7.30671C11.0212 8.31923 10.4341 9.06406 9.62362 9.35907C8.81311 9.65407 7.8846 9.46087 7.02605 8.85953C6.16829 8.25874 5.40186 7.26225 4.94502 6.00709C4.48818 4.75194 4.43477 3.49593 4.70567 2.48434C4.97682 1.47182 5.56392 0.72699 6.37443 0.431987C7.18494 0.136985 8.11345 0.330183 8.972 0.931523C9.82976 1.53231 10.5962 2.52881 11.053 3.78396Z" stroke="#1d1a05" stroke-width="0.5"/>
<path d="M5.77166 10.2705C6.46331 11.0948 6.8484 12.0293 6.92169 12.8656C6.99505 13.7028 6.75652 14.4171 6.23504 14.8547C5.71356 15.2923 4.96871 15.4032 4.15692 15.1855C3.34606 14.9681 2.4926 14.4266 1.80095 13.6023C1.1093 12.778 0.724205 11.8435 0.650921 11.0072C0.577554 10.17 0.816082 9.45569 1.33756 9.01812C1.85904 8.58054 2.6039 8.46967 3.41569 8.68731C4.22655 8.90471 5.08001 9.44623 5.77166 10.2705Z" stroke="#1d1a05" stroke-width="0.5"/>
<path d="M23.7717 13.6023C23.08 14.4266 22.2265 14.9681 21.4157 15.1855C20.6039 15.4032 19.859 15.2923 19.3376 14.8547C18.8161 14.4171 18.5775 13.7028 18.6509 12.8656C18.7242 12.0293 19.1093 11.0948 19.8009 10.2705C20.4926 9.44623 21.3461 8.90471 22.1569 8.68731C22.9687 8.46967 23.7136 8.58054 24.235 9.01812C24.7565 9.45569 24.995 10.17 24.9217 11.0072C24.8484 11.8435 24.4633 12.778 23.7717 13.6023Z" stroke="#1d1a05" stroke-width="0.5"/>
<path d="M21.053 6.0071C20.5962 7.26225 19.8298 8.25875 18.972 8.85954C18.1134 9.46088 17.1849 9.65408 16.3744 9.35907C15.5639 9.06407 14.9768 8.31924 14.7057 7.30672C14.4348 6.29513 14.4882 5.03912 14.945 3.78397C15.4019 2.52881 16.1683 1.53232 17.026 0.93153C17.8846 0.330189 18.8131 0.136991 19.6236 0.431994C20.4341 0.726996 21.0212 1.47183 21.2924 2.48435C21.5633 3.49593 21.5099 4.75194 21.053 6.0071Z" stroke="#1d1a05" stroke-width="0.5"/>
<path d="M16.3316 22.594L13.9945 21.8428C13.3478 21.6349 12.6522 21.6349 12.0055 21.8428L9.66842 22.594C7.35573 23.3373 5.28555 20.9364 6.36116 18.7583L7.66338 16.1213L10.6599 11.2669C11.7344 9.52619 14.2656 9.52619 15.3401 11.2669L18.3366 16.1213L19.6388 18.7583C20.7144 20.9364 18.6443 23.3373 16.3316 22.594Z" stroke="#1d1a05" stroke-width="0.5"/>
</svg>
